HIERARCHY
ROOT root
{
	OFFSET 0.000000 0.000000 0.000000
	CHANNELS 6 Xposition Yposition Zposition Zrotation Yrotation Xrotation
	JOINT lhip
	{
		OFFSET 0.058581 -0.082280 -0.017664
		CHANNELS 3 Zrotation Yrotation Xrotation
		JOINT lknee
		{
			OFFSET 0.043451 -0.386469 0.008037
			CHANNELS 3 Zrotation Yrotation Xrotation
			JOINT lankle
			{
				OFFSET -0.014790 -0.426874 -0.037428
				CHANNELS 3 Zrotation Yrotation Xrotation
				JOINT ltoe
				{
					OFFSET 0.041054 -0.060286 0.122042
					CHANNELS 3 Zrotation Yrotation Xrotation
					End Site
					{
						OFFSET 0.000000 0.000000 0.000000
					}
				}
			}
		}
	}
	JOINT rhip
	{
		OFFSET -0.060310 -0.090513 -0.013543
		CHANNELS 3 Zrotation Yrotation Xrotation
		JOINT rknee
		{
			OFFSET -0.043257 -0.383688 -0.004843
			CHANNELS 3 Zrotation Yrotation Xrotation
			JOINT rankle
			{
				OFFSET 0.019056 -0.420046 -0.034562
				CHANNELS 3 Zrotation Yrotation Xrotation
				JOINT rtoe
				{
					OFFSET -0.034840 -0.062106 0.130323
					CHANNELS 3 Zrotation Yrotation Xrotation
					End Site
					{
						OFFSET 0.000000 0.000000 0.000000
					}
				}
			}
		}
	}
	JOINT lowerback
	{
		OFFSET 0.004439 0.124404 -0.038385
		CHANNELS 3 Zrotation Yrotation Xrotation
		JOINT upperback
		{
			OFFSET 0.004488 0.137956 0.026820
			CHANNELS 3 Zrotation Yrotation Xrotation
			JOINT chest
			{
				OFFSET -0.002265 0.056032 0.002855
				CHANNELS 3 Zrotation Yrotation Xrotation
				JOINT lowerneck
				{
					OFFSET -0.013390 0.211636 -0.033468
					CHANNELS 3 Zrotation Yrotation Xrotation
					JOINT upperneck
					{
						OFFSET 0.010113 0.088937 0.050410
						CHANNELS 3 Zrotation Yrotation Xrotation
						End Site
						{
							OFFSET 0.000000 0.000000 0.000000
						}
					}
				}
				JOINT lclavicle
				{
					OFFSET 0.071702 0.114000 -0.018898
					CHANNELS 3 Zrotation Yrotation Xrotation
					JOINT lshoulder
					{
						OFFSET 0.122921 0.045205 -0.019046
						CHANNELS 3 Zrotation Yrotation Xrotation
						JOINT lelbow
						{
							OFFSET 0.255332 -0.015649 -0.022946
							CHANNELS 3 Zrotation Yrotation Xrotation
							JOINT lwrist
							{
								OFFSET 0.265709 0.012698 -0.007375
								CHANNELS 3 Zrotation Yrotation Xrotation
								End Site
								{
									OFFSET 0.000000 0.000000 0.000000
								}
							}
						}
					}
				}
				JOINT rclavicle
				{
					OFFSET -0.082954 0.112472 -0.023707
					CHANNELS 3 Zrotation Yrotation Xrotation
					JOINT rshoulder
					{
						OFFSET -0.113228 0.046853 -0.008472
						CHANNELS 3 Zrotation Yrotation Xrotation
						JOINT relbow
						{
							OFFSET -0.260127 -0.014369 -0.031269
							CHANNELS 3 Zrotation Yrotation Xrotation
							JOINT rwrist
							{
								OFFSET -0.269108 0.006794 -0.006027
								CHANNELS 3 Zrotation Yrotation Xrotation
								End Site
								{
									OFFSET 0.000000 0.000000 0.000000
								}
							}
						}
					}
				}
			}
		}
	}
}
MOTION
Frames: 15
Frame Time: 0.033333
-0.762738 -1.299798 0.799362 135.826125 -0.960368 100.280363 32.418993 23.844483 -41.528633 -10.462221 12.848912 50.752672 -7.775045 4.256858 -13.735556 0.000000 -0.000000 0.000000 -33.920929 -14.195508 16.907109 5.192302 12.471589 19.859987 11.340193 2.095297 -24.767293 0.000000 -0.000000 0.000000 -3.659775 16.847523 15.529180 -0.250279 2.483302 10.013597 4.370122 6.999844 -10.928592 -17.212132 0.881726 -5.953591 -6.919384 10.360382 -32.533858 -21.004426 -1.261184 17.311680 -39.345119 31.608367 -6.861660 -12.239316 -44.820626 38.437423 33.253669 4.792060 -18.040934 28.290784 20.982731 19.457548 21.170438 17.872188 -26.298143 -10.767710 20.168514 -14.360879 -12.614423 9.202437 27.217416 
-0.745004 -1.243964 0.781586 141.688518 -2.385634 101.381440 29.971740 21.960683 -43.021786 -10.674697 13.335893 52.677275 -4.572841 3.127829 -19.923396 0.000000 -0.000000 0.000000 -32.158715 -16.300694 19.057851 1.571951 8.908545 25.916930 10.054803 -2.299208 -19.808622 0.000000 -0.000000 0.000000 -6.827825 19.717069 16.003540 -1.904783 2.249887 10.474899 3.044527 7.867694 -9.722139 -17.800744 -3.092528 -6.361193 2.680356 0.688464 -33.217679 -19.475352 -4.914887 14.904838 -31.481533 20.443788 -5.404642 -11.034235 -47.755004 32.719070 43.928052 4.599232 -15.010360 28.181005 19.449815 19.256319 30.081426 11.743329 -17.872900 -10.094340 20.409838 -3.368308 -25.504785 14.265621 31.431391 
-0.726804 -1.189121 0.767360 147.968747 -2.829292 102.571099 30.036375 20.926751 -46.041564 -12.716189 14.300566 58.061299 -3.492070 -0.228879 -23.154047 0.000000 -0.000000 0.000000 -26.011367 -16.730654 15.912986 0.248953 5.399709 38.763344 5.077987 -7.691516 -17.532913 0.000000 -0.000000 0.000000 -9.671612 19.629228 18.033765 -1.835870 0.207895 10.683394 3.172124 6.261172 -10.992750 -17.595368 -6.702125 -0.805032 7.934044 -0.601491 -37.757149 -22.922246 -8.773554 14.651457 -28.018818 13.835208 -5.652718 -3.793989 -55.354858 23.896174 43.820525 4.560818 -13.271029 30.651290 17.244363 18.077243 31.367104 7.520455 -20.974301 -16.013360 27.680639 -11.380734 -19.510167 9.945681 29.089808 
-0.708873 -1.135989 0.759513 152.905026 -3.102257 102.059968 28.712802 20.783351 -45.838958 -13.094508 12.557383 61.652297 -2.218080 -3.193649 -28.726758 0.000000 -0.000000 0.000000 -21.980173 -16.460882 10.470942 1.943118 2.011340 55.660819 7.318652 -1.017118 -16.505555 0.000000 -0.000000 0.000000 -10.239475 16.962940 24.066121 -2.007059 -3.477291 9.496081 3.575678 3.973047 -12.946813 -16.124632 -6.045680 3.756403 9.248061 1.652845 -38.573364 -27.992652 -13.096137 15.376041 -27.218996 8.724215 -6.798937 7.611247 -61.775676 11.496746 42.984599 1.928294 -11.846735 32.156704 17.924333 19.178012 32.576316 3.413301 -20.341115 -18.321969 34.574025 -12.195879 -22.320116 11.431533 28.195746 
-0.691958 -1.088807 0.755255 154.795189 -2.732241 101.886100 29.150523 20.247567 -43.617109 -13.611257 11.256858 63.724252 -1.619848 -3.776805 -32.838722 0.000000 -0.000000 0.000000 -18.713563 -15.988013 -1.100025 3.039849 -0.238106 75.111020 6.863951 1.114293 -16.449833 0.000000 -0.000000 0.000000 -10.433959 13.234623 28.675809 -1.574901 -6.026381 8.035572 3.536806 1.678051 -13.042117 -13.135684 -4.533846 3.432197 10.139111 5.000149 -36.207417 -30.010873 -18.148580 14.508502 -30.101293 -0.339994 -8.181669 18.315701 -65.287467 3.519698 38.536450 1.925872 -10.993026 30.692992 18.168170 17.725574 36.295706 2.854857 -21.013510 -23.448185 40.968091 -12.376489 -18.572703 9.429906 26.959003 
-0.670480 -1.045438 0.756402 154.638713 -1.673915 103.114236 29.810321 21.211556 -40.725341 -13.036332 9.628537 64.069187 -0.489444 -3.961062 -36.270190 0.000000 -0.000000 0.000000 -15.398661 -15.427827 -17.457684 -0.040075 -1.644309 92.189297 3.028309 -3.458312 -17.595493 0.000000 -0.000000 0.000000 -11.139867 8.691182 32.683735 -0.650066 -7.363402 3.611408 4.381823 -0.802322 -12.002414 -11.438840 -5.106007 1.172066 10.379789 9.461824 -35.033599 -30.028030 -22.236307 13.016224 -34.067426 -11.583112 -8.587160 26.914883 -68.603650 -3.028877 35.605498 2.650984 -13.475760 27.823236 17.511415 15.802546 40.363726 3.541052 -21.199684 -31.600108 46.687325 -16.759109 -11.663105 6.783207 24.273152 
-0.639716 -1.001055 0.761045 152.911278 -0.085083 103.819931 31.972013 23.065389 -34.479616 -12.622273 7.757037 61.920242 -1.385702 -4.431298 -38.776544 0.000000 -0.000000 0.000000 -12.688815 -12.576933 -34.115853 -3.017314 -3.622915 103.364345 -0.137667 -6.564301 -20.135803 0.000000 -0.000000 0.000000 -11.957540 3.539189 35.386495 0.776364 -7.908472 0.955885 5.479433 -2.966441 -11.547170 -10.463472 -2.965675 -0.167277 8.578542 12.756517 -35.430410 -27.160975 -25.468571 10.678866 -36.493281 -21.524109 -7.987583 30.923438 -70.617576 -3.019355 32.279190 0.862013 -13.784857 24.008545 16.943617 14.143894 44.004750 5.854401 -18.780854 -34.824999 51.467613 -15.900355 -8.965965 6.130294 19.479305 
-0.598686 -0.952812 0.770601 152.390381 0.967002 104.975140 33.542957 22.684370 -27.471615 -12.101357 4.805114 56.454162 -3.090586 -4.295617 -39.039720 0.000000 -0.000000 0.000000 -11.903056 -11.133203 -49.129653 -5.728976 -8.889398 107.496973 -1.157362 -6.098613 -23.574778 0.000000 -0.000000 0.000000 -11.255225 -2.178538 36.639500 2.730617 -8.269678 -1.370486 5.945336 -4.888584 -10.634332 -9.210665 0.706330 -2.797619 5.649715 14.477081 -33.671530 -21.451004 -26.659185 6.533417 -41.916050 -30.235499 -5.783675 34.485398 -70.753038 -2.787036 23.943532 -2.512355 -14.177914 19.281413 14.907086 11.473504 49.056798 9.014957 -17.241519 -41.239238 54.976688 -21.269558 4.953138 4.564282 8.534471 
-0.543673 -0.898761 0.787333 151.203470 1.122017 106.844534 34.037457 20.375719 -18.352990 -10.025255 2.106934 46.681157 -6.113039 -3.453015 -35.783298 0.000000 -0.000000 0.000000 -11.492450 -11.118933 -61.468092 -9.575571 -15.338632 105.255135 -1.194255 -4.821223 -24.891576 0.000000 -0.000000 0.000000 -10.001884 -6.785356 34.478478 4.416594 -8.064634 -1.335007 6.561332 -6.014215 -9.832078 -9.166476 4.448289 -4.632717 2.928950 14.331784 -34.478871 -16.294454 -26.045086 4.209524 -47.345973 -34.893511 -2.902296 41.792987 -71.775902 -8.495542 21.058538 -4.698881 -13.530366 17.183165 12.468579 11.308572 54.346573 11.006702 -14.550893 -45.101580 58.079768 -23.577677 7.933526 5.830682 3.307134 
-0.477773 -0.838916 0.810114 147.474763 0.582246 107.679843 32.524001 16.175130 -5.915081 -6.633198 -2.598371 34.608075 -10.063366 -1.312224 -25.856141 0.000000 -0.000000 0.000000 -10.680326 -9.645751 -68.536257 -9.433384 -21.208053 98.471151 -1.137596 -0.886138 -25.766923 0.000000 -0.000000 0.000000 -8.095693 -10.365921 31.483045 5.045039 -6.895730 0.368069 6.613096 -6.575150 -10.282835 -10.085743 9.425646 -5.296405 -1.887565 16.043075 -34.915539 -15.429322 -22.364150 3.379685 -50.093855 -31.956866 -1.244074 47.747484 -74.071279 -13.990269 17.759508 -9.047702 -11.654165 16.332070 9.774233 10.621595 61.157926 10.930407 -10.690567 -63.095134 63.360334 -38.417164 17.410964 9.960491 -1.827313 
-0.406131 -0.774066 0.829354 143.109755 -0.036002 107.856514 28.358448 10.503828 3.420511 -0.646460 -1.731316 29.014757 -7.419785 5.897021 -11.695039 0.000000 -0.000000 0.000000 -9.300099 -7.515390 -69.486833 -7.376299 -25.078030 91.554674 -2.506533 -0.057263 -25.079522 0.000000 -0.000000 0.000000 -4.517474 -13.636909 27.330458 5.106651 -5.839720 2.132971 6.306384 -7.237185 -11.870623 -9.556761 10.511135 -1.563988 -9.841506 23.899647 -34.287394 -20.253695 -17.608408 7.260460 -50.040528 -22.969406 -3.228792 45.192090 -74.010424 -11.323954 13.087562 -10.890701 -8.532134 16.702774 9.301602 11.590465 63.943436 12.902754 -8.378288 -75.977077 63.077966 -47.238045 24.912026 9.454341 3.455393 
-0.333501 -0.707763 0.838806 138.618618 -1.893338 107.295717 20.207583 4.322529 6.753299 -0.960588 -4.102040 37.863239 -2.926799 8.874976 -11.144102 0.000000 -0.000000 0.000000 -7.446657 -5.560789 -65.035383 -6.190162 -23.725465 87.613417 -3.117731 -2.140085 -20.648571 0.000000 -0.000000 0.000000 -0.635792 -14.491028 23.291175 4.948656 -5.880068 3.433256 5.828362 -7.717544 -12.695179 -10.642616 8.643479 4.591506 -18.985931 31.836879 -38.291145 -25.147865 -13.585721 12.349053 -50.483885 -12.435210 -4.738414 27.399245 -71.025878 1.270574 4.836335 -10.348783 -14.627929 16.709635 10.235296 12.350300 62.836016 16.651083 -5.938811 -80.846261 62.817003 -48.824255 22.924147 6.225651 12.850933 
-0.259399 -0.649570 0.839450 130.925075 -3.731061 106.819374 11.856852 2.387453 4.710966 -8.546686 -2.023320 57.123144 1.195185 5.069553 -13.292134 0.000000 -0.000000 0.000000 -5.920922 0.033949 -56.715102 -5.050685 -20.378173 86.210942 -4.381033 -7.946629 -26.018947 0.000000 -0.000000 0.000000 -0.989595 -11.621399 21.113869 5.512800 -4.673403 6.589418 5.661101 -6.666263 -14.271148 -9.282987 5.477698 7.825529 -27.749610 37.488273 -41.656834 -28.631930 -10.737677 14.806640 -51.697950 0.932728 -2.355154 16.682117 -67.369518 8.925110 4.893329 -9.920267 -10.092723 15.834352 14.295896 8.501101 62.413844 16.637708 -2.364059 -93.463525 52.574594 -65.822255 47.404044 5.534879 5.813234 
-0.186364 -0.596421 0.836487 124.299805 -3.755181 108.046782 8.431830 3.546900 -4.615602 -3.463299 7.601813 77.728972 3.470333 8.601050 -14.923052 0.000000 -0.000000 0.000000 -3.701615 3.800934 -47.189158 -1.832198 -14.877878 80.769395 -5.677771 -9.517313 -33.437349 0.000000 -0.000000 0.000000 0.508250 -8.607687 19.593371 5.536967 -2.991144 8.752518 4.673586 -4.433143 -15.367792 -9.429831 1.851044 10.077036 -32.842010 38.019443 -47.548876 -31.978585 -7.796974 17.633173 -51.634566 14.777611 -1.291766 2.549986 -65.934846 25.675457 4.270644 -9.659577 -2.496727 15.956675 18.281377 7.596739 55.516325 19.305405 -2.749289 -105.004840 50.554754 -79.015565 53.419234 4.185058 2.579070 
-0.116368 -0.547174 0.837484 118.713560 -3.094357 108.981393 6.942161 3.341495 -19.097375 0.216128 11.781282 95.577054 5.699804 9.693310 -17.244052 0.000000 -0.000000 0.000000 -2.632267 4.465685 -38.450267 2.217763 -10.079860 75.201153 -5.216355 -8.915812 -35.604638 0.000000 -0.000000 0.000000 2.170051 -4.402513 21.986786 4.369421 -0.539447 9.245232 3.953525 -1.622513 -16.396637 -11.889746 -2.749741 11.082739 -33.067535 35.062529 -53.542895 -33.413478 -5.396442 19.263290 -50.057772 26.132597 -0.047332 -8.591056 -62.237563 37.727465 5.566422 -9.868222 -2.271970 14.605095 22.160023 8.137625 44.453165 19.613921 -4.573301 -106.553446 52.784416 -84.342820 41.370353 4.456951 -1.000319 
